<?xml version="1.0" encoding="UTF-8" standalone="no"?>
<!DOCTYPE svg PUBLIC "-//W3C//DTD SVG 1.1//EN" "http://www.w3.org/Graphics/SVG/1.1/DTD/svg11.dtd">
<svg width="100%" height="100%" viewBox="0 0 1024 1024" version="1.1" xmlns="http://www.w3.org/2000/svg" xmlns:xlink="http://www.w3.org/1999/xlink" xml:space="preserve" xmlns:serif="http://www.serif.com/" style="fill-rule:evenodd;clip-rule:evenodd;stroke-linecap:round;stroke-linejoin:round;stroke-miterlimit:1.5;">
    <g transform="matrix(1.0485,0,0,1.0485,-24.8342,-24.8342)">
        <circle cx="512" cy="512" r="488.315" style="fill:white;"/>
    </g>
    <g transform="matrix(1.62598,0,0,1.38738,-436.423,-178.428)">
        <path d="M583.293,198.365L783.817,333.473L583.293,468.581L382.769,333.473L583.293,198.365Z" style="fill:rgb(55,55,55);"/>
    </g>
    <g transform="matrix(0.976421,0,0,0.976421,12.0725,-28.2541)">
        <path d="M512,512L512,898.704L178.078,705.448L178.078,320.027L512,512Z" style="fill:rgb(46,46,46);"/>
    </g>
    <g transform="matrix(-0.976356,0,0,0.976421,1011.89,-28.2541)">
        <path d="M512,512L512,898.704L178.078,705.448L178.078,320.027L512,512Z" style="fill:rgb(39,39,39);"/>
    </g>
    <g transform="matrix(0.976421,0,0,0.976421,12.0725,-28.2541)">
        <path d="M178.078,320.027L512,512L845.922,320.027" style="fill:none;stroke:white;stroke-width:3.07px;"/>
    </g>
    <g transform="matrix(0.976421,0,0,0.976421,12.0725,-28.2541)">
        <path d="M512,512L512,898.704" style="fill:none;stroke:white;stroke-width:3.07px;"/>
    </g>
</svg>
